<svg width="720" height="500" viewBox="0 0 720 500" fill="none" xmlns="http://www.w3.org/2000/svg" role="img" aria-labelledby="title desc">
  <title id="title">Layout-controllable generation placeholder</title>
  <desc id="desc">Sparse dot layouts and generated pattern tiles on a soft gradient background.</desc>
  <defs>
    <linearGradient id="bg" x1="56" y1="36" x2="672" y2="454" gradientUnits="userSpaceOnUse">
      <stop stop-color="#FFF0F7"/>
      <stop offset="0.48" stop-color="#F0ECFF"/>
      <stop offset="1" stop-color="#E8F9FF"/>
    </linearGradient>
    <linearGradient id="tile" x1="128" y1="120" x2="602" y2="412" gradientUnits="userSpaceOnUse">
      <stop stop-color="#E66FA8"/>
      <stop offset="0.52" stop-color="#6755D8"/>
      <stop offset="1" stop-color="#58BDA5"/>
    </linearGradient>
  </defs>
  <rect width="720" height="500" rx="42" fill="url(#bg)"/>
  <g opacity="0.42">
    <path d="M92 116H624" stroke="#FFFFFF" stroke-width="2"/>
    <path d="M92 196H624" stroke="#FFFFFF" stroke-width="2"/>
    <path d="M92 276H624" stroke="#FFFFFF" stroke-width="2"/>
    <path d="M92 356H624" stroke="#FFFFFF" stroke-width="2"/>
    <path d="M154 76V420" stroke="#FFFFFF" stroke-width="2"/>
    <path d="M256 76V420" stroke="#FFFFFF" stroke-width="2"/>
    <path d="M358 76V420" stroke="#FFFFFF" stroke-width="2"/>
    <path d="M460 76V420" stroke="#FFFFFF" stroke-width="2"/>
    <path d="M562 76V420" stroke="#FFFFFF" stroke-width="2"/>
  </g>
  <rect x="98" y="86" width="522" height="336" rx="32" fill="white" opacity="0.42"/>
  <g>
    <circle cx="154" cy="164" r="15" fill="#E66FA8"/>
    <circle cx="256" cy="196" r="15" fill="#6755D8"/>
    <circle cx="358" cy="148" r="15" fill="#58BDA5"/>
    <circle cx="460" cy="276" r="15" fill="#F4A86D"/>
    <circle cx="562" cy="228" r="15" fill="#4666D8"/>
    <circle cx="205" cy="316" r="15" fill="#F09CC2"/>
    <circle cx="408" cy="356" r="15" fill="#8E82EF"/>
  </g>
  <g opacity="0.9">
    <rect x="126" y="132" width="66" height="66" rx="18" fill="url(#tile)"/>
    <rect x="224" y="164" width="66" height="66" rx="18" fill="url(#tile)" opacity="0.78"/>
    <rect x="326" y="116" width="66" height="66" rx="18" fill="url(#tile)" opacity="0.72"/>
    <rect x="428" y="244" width="66" height="66" rx="18" fill="url(#tile)" opacity="0.82"/>
    <rect x="530" y="196" width="66" height="66" rx="18" fill="url(#tile)" opacity="0.7"/>
    <rect x="173" y="284" width="66" height="66" rx="18" fill="url(#tile)" opacity="0.84"/>
    <rect x="376" y="324" width="66" height="66" rx="18" fill="url(#tile)" opacity="0.76"/>
  </g>
  <path d="M154 164C247 228 338 125 460 276C494 318 528 246 562 228" stroke="#FFFFFF" stroke-width="10" stroke-linecap="round" opacity="0.86"/>
  <rect x="62" y="436" width="176" height="28" rx="14" fill="#FFFFFF" opacity="0.78"/>
  <rect x="484" y="46" width="154" height="28" rx="14" fill="#FFFFFF" opacity="0.72"/>
</svg>
