<svg width="720" height="500" viewBox="0 0 720 500" fill="none" xmlns="http://www.w3.org/2000/svg" role="img" aria-labelledby="title desc">
  <title id="title">Video generation placeholder</title>
  <desc id="desc">Abstract video frames with motion waves and temporal consistency marks.</desc>
  <defs>
    <linearGradient id="bg" x1="54" y1="40" x2="672" y2="450" gradientUnits="userSpaceOnUse">
      <stop stop-color="#EAF3FF"/>
      <stop offset="0.52" stop-color="#F4EDFF"/>
      <stop offset="1" stop-color="#FFF2E6"/>
    </linearGradient>
    <linearGradient id="frame" x1="116" y1="146" x2="574" y2="340" gradientUnits="userSpaceOnUse">
      <stop stop-color="#4666D8"/>
      <stop offset="0.55" stop-color="#6755D8"/>
      <stop offset="1" stop-color="#E66FA8"/>
    </linearGradient>
  </defs>
  <rect width="720" height="500" rx="42" fill="url(#bg)"/>
  <circle cx="558" cy="126" r="88" fill="#FFFFFF" opacity="0.45"/>
  <circle cx="146" cy="392" r="110" fill="#FFFFFF" opacity="0.38"/>
  <g opacity="0.96">
    <rect x="92" y="148" width="150" height="204" rx="28" fill="white" opacity="0.78"/>
    <rect x="118" y="180" width="98" height="118" rx="24" fill="url(#frame)" opacity="0.72"/>
    <rect x="286" y="116" width="164" height="252" rx="30" fill="white" opacity="0.88"/>
    <rect x="316" y="154" width="104" height="154" rx="28" fill="url(#frame)"/>
    <rect x="496" y="158" width="134" height="184" rx="28" fill="white" opacity="0.72"/>
    <rect x="520" y="190" width="86" height="106" rx="24" fill="url(#frame)" opacity="0.7"/>
  </g>
  <path d="M108 392C192 326 278 420 366 354C456 286 522 372 626 302" stroke="#6755D8" stroke-width="14" stroke-linecap="round" opacity="0.7"/>
  <path d="M112 420C202 356 278 448 370 382C456 320 536 404 632 334" stroke="#E66FA8" stroke-width="10" stroke-linecap="round" opacity="0.54"/>
  <g fill="#FFFFFF" opacity="0.9">
    <circle cx="154" cy="414" r="9"/>
    <circle cx="268" cy="414" r="9"/>
    <circle cx="382" cy="414" r="9"/>
    <circle cx="496" cy="414" r="9"/>
    <circle cx="610" cy="414" r="9"/>
  </g>
</svg>
