<svg width="720" height="500" viewBox="0 0 720 500" fill="none" xmlns="http://www.w3.org/2000/svg" role="img" aria-labelledby="title desc">
  <title id="title">Rhythm game placeholder</title>
  <desc id="desc">Abstract rhythm circle and arcade button motif in soft colors.</desc>
  <defs>
    <linearGradient id="bg" x1="46" y1="44" x2="674" y2="454" gradientUnits="userSpaceOnUse">
      <stop stop-color="#F4F8FA"/>
      <stop offset="0.48" stop-color="#E7F1F4"/>
      <stop offset="1" stop-color="#F4F8FA"/>
    </linearGradient>
    <linearGradient id="ring" x1="166" y1="70" x2="552" y2="444" gradientUnits="userSpaceOnUse">
      <stop stop-color="#d7eef8"/>
      <stop offset="0.5" stop-color="#2d5f86"/>
      <stop offset="1" stop-color="#66ccff"/>
    </linearGradient>
  </defs>
  <rect width="720" height="500" rx="42" fill="url(#bg)"/>
  <circle cx="360" cy="250" r="158" fill="#FFFFFF" opacity="0.62"/>
  <circle cx="360" cy="250" r="122" stroke="url(#ring)" stroke-width="26"/>
  <circle cx="360" cy="250" r="54" fill="url(#ring)" opacity="0.92"/>
  <circle cx="360" cy="250" r="22" fill="#FFFDFB"/>
  <g fill="#FFFFFF" opacity="0.9">
    <circle cx="360" cy="58" r="22"/>
    <circle cx="496" cy="114" r="22"/>
    <circle cx="552" cy="250" r="22"/>
    <circle cx="496" cy="386" r="22"/>
    <circle cx="360" cy="442" r="22"/>
    <circle cx="224" cy="386" r="22"/>
    <circle cx="168" cy="250" r="22"/>
    <circle cx="224" cy="114" r="22"/>
  </g>
  <g stroke="#142c44" stroke-width="8" stroke-linecap="round" opacity="0.32">
    <path d="M360 58V106"/>
    <path d="M496 114L462 148"/>
    <path d="M552 250H504"/>
    <path d="M496 386L462 352"/>
    <path d="M360 442V394"/>
    <path d="M224 386L258 352"/>
    <path d="M168 250H216"/>
    <path d="M224 114L258 148"/>
  </g>
  <path d="M116 424H604" stroke="#FFFFFF" stroke-width="16" stroke-linecap="round" opacity="0.66"/>
</svg>
